<svg width="14" height="8" viewBox="0 0 14 8" fill="none" xmlns="http://www.w3.org/2000/svg">
<path d="M13.1465 0.496483C13.3417 0.301221 13.6582 0.301221 13.8535 0.496483C14.0488 0.691745 14.0488 1.00825 13.8535 1.20351L7.70312 7.35391L7.70214 7.35293C7.61283 7.44496 7.5074 7.51967 7.38964 7.5707C7.26674 7.62391 7.13392 7.65176 6.99999 7.65176C6.86606 7.65176 6.73325 7.62391 6.61034 7.5707C6.49238 7.51958 6.38628 7.44519 6.29687 7.35293V7.35391L0.146477 1.20351C-0.048785 1.00825 -0.048785 0.691745 0.146477 0.496483C0.341739 0.301221 0.658246 0.301221 0.853508 0.496483L6.99999 6.64297L13.1465 0.496483Z" fill="#000001"/>
</svg>
